<?xml version="1.0" encoding="UTF-8" standalone="no"?>
<!-- Created with Inkscape (http://www.inkscape.org/) -->

<svg
   xmlns:dc="http://purl.org/dc/elements/1.1/"
   xmlns:cc="http://creativecommons.org/ns#"
   xmlns:rdf="http://www.w3.org/1999/02/22-rdf-syntax-ns#"
   xmlns:svg="http://www.w3.org/2000/svg"
   xmlns="http://www.w3.org/2000/svg"
   xmlns:sodipodi="http://sodipodi.sourceforge.net/DTD/sodipodi-0.dtd"
   xmlns:inkscape="http://www.inkscape.org/namespaces/inkscape"
   width="1122.5197"
   height="793.70081"
   viewBox="0 0 297 210"
   version="1.1"
   id="svg5540"
   inkscape:version="0.92.2 5c3e80d, 2017-08-06"
   sodipodi:docname="swirly.svg">
  <defs
     id="defs5534" />
  <sodipodi:namedview
     id="base"
     pagecolor="#ffffff"
     bordercolor="#660066"
     borderopacity="1"
     inkscape:pageopacity="0.0"
     inkscape:pageshadow="2"
     inkscape:zoom="0.93652344"
     inkscape:cx="571.66397"
     inkscape:cy="584.23988"
     inkscape:document-units="px"
     inkscape:current-layer="layer1"
     showgrid="false"
     units="px"
     inkscape:pagecheckerboard="false"
     borderlayer="true"
     inkscape:lockguides="true"
     inkscape:window-width="1440"
     inkscape:window-height="878"
     inkscape:window-x="0"
     inkscape:window-y="0"
     inkscape:window-maximized="1" />
  <metadata
     id="metadata5537">
    <rdf:RDF>
      <cc:Work
         rdf:about="">
        <dc:format>image/svg+xml</dc:format>
        <dc:type
           rdf:resource="http://purl.org/dc/dcmitype/StillImage" />
        <dc:title></dc:title>
      </cc:Work>
    </rdf:RDF>
  </metadata>
  <g
     inkscape:label="Layer 1"
     inkscape:groupmode="layer"
     id="layer1"
     transform="translate(0,-87)">
    <path
       sodipodi:type="spiral"
       style="fill:none;fill-rule:evenodd;stroke:#000000;stroke-width:0.26458332"
       id="path5633"
       sodipodi:cx="120.35204"
       sodipodi:cy="152.91658"
       sodipodi:expansion="1"
       sodipodi:revolution="6.3099999"
       sodipodi:radius="67.771584"
       sodipodi:argument="-38.333214"
       sodipodi:t0="0"
       d="m 120.35204,152.91658 c 1.30147,-0.95712 1.93227,1.28214 1.59079,2.16312 -0.92538,2.38739 -4.15105,2.30208 -5.91702,1.01846 -3.15891,-2.29608 -2.8586,-6.96208 -0.44614,-9.67093 3.54039,-3.97534 9.81361,-3.43815 13.42484,0.12619 4.8132,4.7507 4.0279,12.67981 -0.69851,17.17874 -5.94771,5.66145 -15.5531,4.62301 -20.93266,-1.27083 -6.51536,-7.13824 -5.22123,-18.43039 1.84317,-24.68657 8.32514,-7.37269 21.31016,-5.82141 28.44047,2.41549 8.23222,9.50983 6.4229,24.19161 -2.98782,32.19438 -10.69305,9.09326 -27.07422,7.02531 -35.948283,-3.56014 -9.955362,-11.87527 -7.628374,-29.95768 4.132463,-39.70219 13.05676,-10.81825 32.84179,-8.23194 43.4561,4.70479 11.68174,14.2377 8.83588,35.72639 -5.27711,47.21001 -15.41824,12.54568 -38.61139,9.44011 -50.96392,-5.84945 -13.409996,-16.59844 -10.04459,-41.49668 6.421768,-54.71782 17.778402,-14.2746 44.382242,-10.64926 58.471732,6.99409 15.13945,18.95815 11.25408,47.26801 -7.56642,62.22564 -20.13772,16.00449 -50.153948,11.85905 -65.979546,-8.13874 -16.869699,-21.31715 -12.464113,-53.04004 8.711069,-69.73346 22.496467,-17.735044 55.926247,-13.069271 73.487367,9.2834 18.60051,23.67567 13.67451,58.81257 -9.85572,77.24127 C 128.90385,217.80811 92.059669,212.62186 72.763477,187.91398 52.431733,161.88013 57.878276,123.3285 83.763849,103.1649 110.97669,81.967418 151.2359,87.674272 172.26684,114.7376 c 22.06329,28.39177 16.0961,70.35867 -12.14502,92.2569 -6.70401,5.1983 -14.38946,9.10271 -22.53629,11.46592" />
  </g>
</svg>
